<?xml version="1.0" encoding="utf-8" standalone="no"?>
<!DOCTYPE svg PUBLIC "-//W3C//DTD SVG 1.1//EN"
  "http://www.w3.org/Graphics/SVG/1.1/DTD/svg11.dtd">
<svg height="364.54925pt" version="1.1" viewBox="0 0 461.97125 364.54925" width="461.97125pt" xmlns="http://www.w3.org/2000/svg" xmlns:xlink="http://www.w3.org/1999/xlink">
 <metadata>
  <rdf:RDF xmlns:cc="http://creativecommons.org/ns#" xmlns:dc="http://purl.org/dc/elements/1.1/" xmlns:rdf="http://www.w3.org/1999/02/22-rdf-syntax-ns#">
   <cc:Work>
    <dc:type rdf:resource="http://purl.org/dc/dcmitype/StillImage"/>
    <dc:date>2021-06-29T12:43:13.149104</dc:date>
    <dc:format>image/svg+xml</dc:format>
    <dc:creator>
     <cc:Agent>
      <dc:title>Matplotlib v3.4.2, https://matplotlib.org/</dc:title>
     </cc:Agent>
    </dc:creator>
   </cc:Work>
  </rdf:RDF>
 </metadata>
 <defs>
  <style type="text/css">*{stroke-linecap:butt;stroke-linejoin:round;}</style>
 </defs>
 <g id="figure_1">
  <g id="patch_1">
   <path d="M 0 364.54925 
L 461.97125 364.54925 
L 461.97125 0 
L 0 0 
z
" style="fill:#ffffff;"/>
  </g>
  <g id="axes_1">
   <g id="patch_2">
    <path d="M 52.71875 323.12175 
L 443.31875 323.12175 
L 443.31875 24.14175 
L 52.71875 24.14175 
z
" style="fill:#ffffff;"/>
   </g>
   <g id="PolyCollection_1">
    <path clip-path="url(#p76eb157db8)" d="M 52.71875 292.900792 
L 52.71875 289.005198 
L 56.62475 288.013449 
L 60.53075 288.501745 
L 64.43675 286.880507 
L 68.34275 287.279934 
L 72.24875 286.072983 
L 76.15475 285.124674 
L 80.06075 284.83866 
L 83.96675 281.802889 
L 87.87275 281.544818 
L 91.77875 278.452503 
L 95.68475 276.839704 
L 99.59075 275.277634 
L 103.49675 270.519933 
L 107.40275 261.542076 
L 111.30875 255.66879 
L 115.21475 241.680123 
L 119.12075 231.799341 
L 123.02675 217.134056 
L 126.93275 196.34363 
L 130.83875 179.348164 
L 134.74475 164.459589 
L 138.65075 151.861584 
L 142.55675 137.196186 
L 146.46275 123.357503 
L 150.36875 115.640894 
L 154.27475 104.802595 
L 158.18075 99.512051 
L 162.08675 90.519726 
L 165.99275 88.524846 
L 169.89875 81.925944 
L 173.80475 76.828216 
L 177.71075 70.301304 
L 181.61675 65.710376 
L 185.52275 64.948213 
L 189.42875 61.881634 
L 193.33475 60.442049 
L 197.24075 59.078263 
L 201.14675 59.18043 
L 205.05275 54.964003 
L 208.95875 54.114249 
L 212.86475 48.979681 
L 216.77075 45.083192 
L 220.67675 45.964357 
L 224.58275 45.924735 
L 228.48875 44.36421 
L 232.39475 45.838763 
L 236.30075 42.352039 
L 240.20675 42.516639 
L 244.11275 40.809146 
L 248.01875 41.892844 
L 251.92475 41.859039 
L 255.83075 41.001894 
L 259.73675 41.041082 
L 263.64275 41.278469 
L 267.54875 36.836082 
L 271.45475 34.306071 
L 275.36075 33.283414 
L 279.26675 33.076182 
L 283.17275 32.681175 
L 287.07875 32.354279 
L 290.98475 32.312308 
L 294.89075 32.511967 
L 298.79675 31.823231 
L 302.70275 31.858336 
L 306.60875 33.151251 
L 310.51475 32.70289 
L 314.42075 35.708543 
L 318.32675 35.660756 
L 322.23275 35.046176 
L 326.13875 33.697627 
L 330.04475 32.69331 
L 333.95075 31.444534 
L 337.85675 31.075416 
L 341.76275 32.015751 
L 345.66875 32.43521 
L 349.57475 30.608283 
L 353.48075 32.084501 
L 357.38675 33.560218 
L 361.29275 32.866326 
L 365.19875 33.884672 
L 369.10475 33.182615 
L 373.01075 31.839358 
L 376.91675 30.718206 
L 380.82275 30.651303 
L 384.72875 28.548256 
L 388.63475 28.588151 
L 392.54075 29.840691 
L 396.44675 28.930079 
L 400.35275 29.338955 
L 404.25875 30.896743 
L 408.16475 29.051498 
L 412.07075 30.72384 
L 415.97675 31.594124 
L 419.88275 29.070842 
L 423.78875 30.3422 
L 427.69475 30.777604 
L 431.60075 31.094874 
L 435.50675 30.1987 
L 439.41275 30.660587 
L 439.41275 39.212238 
L 439.41275 39.212238 
L 435.50675 39.581469 
L 431.60075 38.99027 
L 427.69475 38.036866 
L 423.78875 39.599375 
L 419.88275 40.141304 
L 415.97675 41.59437 
L 412.07075 40.404695 
L 408.16475 38.973642 
L 404.25875 39.218328 
L 400.35275 40.495047 
L 396.44675 36.936471 
L 392.54075 37.302417 
L 388.63475 39.194834 
L 384.72875 38.310864 
L 380.82275 39.364999 
L 376.91675 42.314858 
L 373.01075 41.821584 
L 369.10475 41.016469 
L 365.19875 41.878108 
L 361.29275 41.335723 
L 357.38675 43.547918 
L 353.48075 49.852178 
L 349.57475 50.652708 
L 345.66875 46.326311 
L 341.76275 46.581354 
L 337.85675 47.674153 
L 333.95075 47.511333 
L 330.04475 47.784327 
L 326.13875 50.307952 
L 322.23275 46.935439 
L 318.32675 46.272958 
L 314.42075 45.836482 
L 310.51475 48.854088 
L 306.60875 47.616443 
L 302.70275 49.154477 
L 298.79675 48.197012 
L 294.89075 48.115169 
L 290.98475 50.353846 
L 287.07875 50.111646 
L 283.17275 50.615869 
L 279.26675 51.360011 
L 275.36075 52.788191 
L 271.45475 53.28735 
L 267.54875 50.906792 
L 263.64275 51.008869 
L 259.73675 51.482526 
L 255.83075 53.028521 
L 251.92475 53.633429 
L 248.01875 53.417187 
L 244.11275 54.764025 
L 240.20675 52.721676 
L 236.30075 56.258788 
L 232.39475 57.600562 
L 228.48875 58.306725 
L 224.58275 63.437392 
L 220.67675 65.628168 
L 216.77075 66.072833 
L 212.86475 70.57772 
L 208.95875 69.461381 
L 205.05275 71.616435 
L 201.14675 69.974158 
L 197.24075 74.584976 
L 193.33475 76.886679 
L 189.42875 79.794247 
L 185.52275 79.941648 
L 181.61675 86.100925 
L 177.71075 94.766788 
L 173.80475 97.62187 
L 169.89875 107.434272 
L 165.99275 112.268336 
L 162.08675 125.297228 
L 158.18075 132.204639 
L 154.27475 143.483555 
L 150.36875 157.000178 
L 146.46275 177.178397 
L 142.55675 194.018056 
L 138.65075 211.310639 
L 134.74475 228.589712 
L 130.83875 245.114965 
L 126.93275 259.416727 
L 123.02675 265.510578 
L 119.12075 271.543674 
L 115.21475 274.800076 
L 111.30875 276.788894 
L 107.40275 280.892579 
L 103.49675 281.954478 
L 99.59075 282.291381 
L 95.68475 283.264665 
L 91.77875 285.29345 
L 87.87275 287.812986 
L 83.96675 287.626677 
L 80.06075 289.601801 
L 76.15475 288.457707 
L 72.24875 289.479683 
L 68.34275 291.163866 
L 64.43675 291.022145 
L 60.53075 292.103684 
L 56.62475 291.411013 
L 52.71875 292.900792 
z
" style="fill:#1f77b4;fill-opacity:0.3;"/>
   </g>
   <g id="matplotlib.axis_1">
    <g id="xtick_1">
     <g id="line2d_1">
      <defs>
       <path d="M 0 0 
L 0 3.5 
" id="me68368c690" style="stroke:#000000;stroke-width:0.8;"/>
      </defs>
      <g>
       <use style="stroke:#000000;stroke-width:0.8;" x="52.71875" xlink:href="#me68368c690" y="323.12175"/>
      </g>
     </g>
     <g id="text_1">
      <!-- 0 -->
      <g transform="translate(48.90125 339.239875)scale(0.12 -0.12)">
       <defs>
        <path d="M 2034 4250 
Q 1547 4250 1301 3770 
Q 1056 3291 1056 2328 
Q 1056 1369 1301 889 
Q 1547 409 2034 409 
Q 2525 409 2770 889 
Q 3016 1369 3016 2328 
Q 3016 3291 2770 3770 
Q 2525 4250 2034 4250 
z
M 2034 4750 
Q 2819 4750 3233 4129 
Q 3647 3509 3647 2328 
Q 3647 1150 3233 529 
Q 2819 -91 2034 -91 
Q 1250 -91 836 529 
Q 422 1150 422 2328 
Q 422 3509 836 4129 
Q 1250 4750 2034 4750 
z
" id="DejaVuSans-30" transform="scale(0.015625)"/>
       </defs>
       <use xlink:href="#DejaVuSans-30"/>
      </g>
     </g>
    </g>
    <g id="xtick_2">
     <g id="line2d_2">
      <g>
       <use style="stroke:#000000;stroke-width:0.8;" x="130.83875" xlink:href="#me68368c690" y="323.12175"/>
      </g>
     </g>
     <g id="text_2">
      <!-- 20 -->
      <g transform="translate(123.20375 339.239875)scale(0.12 -0.12)">
       <defs>
        <path d="M 1228 531 
L 3431 531 
L 3431 0 
L 469 0 
L 469 531 
Q 828 903 1448 1529 
Q 2069 2156 2228 2338 
Q 2531 2678 2651 2914 
Q 2772 3150 2772 3378 
Q 2772 3750 2511 3984 
Q 2250 4219 1831 4219 
Q 1534 4219 1204 4116 
Q 875 4013 500 3803 
L 500 4441 
Q 881 4594 1212 4672 
Q 1544 4750 1819 4750 
Q 2544 4750 2975 4387 
Q 3406 4025 3406 3419 
Q 3406 3131 3298 2873 
Q 3191 2616 2906 2266 
Q 2828 2175 2409 1742 
Q 1991 1309 1228 531 
z
" id="DejaVuSans-32" transform="scale(0.015625)"/>
       </defs>
       <use xlink:href="#DejaVuSans-32"/>
       <use x="63.623047" xlink:href="#DejaVuSans-30"/>
      </g>
     </g>
    </g>
    <g id="xtick_3">
     <g id="line2d_3">
      <g>
       <use style="stroke:#000000;stroke-width:0.8;" x="208.95875" xlink:href="#me68368c690" y="323.12175"/>
      </g>
     </g>
     <g id="text_3">
      <!-- 40 -->
      <g transform="translate(201.32375 339.239875)scale(0.12 -0.12)">
       <defs>
        <path d="M 2419 4116 
L 825 1625 
L 2419 1625 
L 2419 4116 
z
M 2253 4666 
L 3047 4666 
L 3047 1625 
L 3713 1625 
L 3713 1100 
L 3047 1100 
L 3047 0 
L 2419 0 
L 2419 1100 
L 313 1100 
L 313 1709 
L 2253 4666 
z
" id="DejaVuSans-34" transform="scale(0.015625)"/>
       </defs>
       <use xlink:href="#DejaVuSans-34"/>
       <use x="63.623047" xlink:href="#DejaVuSans-30"/>
      </g>
     </g>
    </g>
    <g id="xtick_4">
     <g id="line2d_4">
      <g>
       <use style="stroke:#000000;stroke-width:0.8;" x="287.07875" xlink:href="#me68368c690" y="323.12175"/>
      </g>
     </g>
     <g id="text_4">
      <!-- 60 -->
      <g transform="translate(279.44375 339.239875)scale(0.12 -0.12)">
       <defs>
        <path d="M 2113 2584 
Q 1688 2584 1439 2293 
Q 1191 2003 1191 1497 
Q 1191 994 1439 701 
Q 1688 409 2113 409 
Q 2538 409 2786 701 
Q 3034 994 3034 1497 
Q 3034 2003 2786 2293 
Q 2538 2584 2113 2584 
z
M 3366 4563 
L 3366 3988 
Q 3128 4100 2886 4159 
Q 2644 4219 2406 4219 
Q 1781 4219 1451 3797 
Q 1122 3375 1075 2522 
Q 1259 2794 1537 2939 
Q 1816 3084 2150 3084 
Q 2853 3084 3261 2657 
Q 3669 2231 3669 1497 
Q 3669 778 3244 343 
Q 2819 -91 2113 -91 
Q 1303 -91 875 529 
Q 447 1150 447 2328 
Q 447 3434 972 4092 
Q 1497 4750 2381 4750 
Q 2619 4750 2861 4703 
Q 3103 4656 3366 4563 
z
" id="DejaVuSans-36" transform="scale(0.015625)"/>
       </defs>
       <use xlink:href="#DejaVuSans-36"/>
       <use x="63.623047" xlink:href="#DejaVuSans-30"/>
      </g>
     </g>
    </g>
    <g id="xtick_5">
     <g id="line2d_5">
      <g>
       <use style="stroke:#000000;stroke-width:0.8;" x="365.19875" xlink:href="#me68368c690" y="323.12175"/>
      </g>
     </g>
     <g id="text_5">
      <!-- 80 -->
      <g transform="translate(357.56375 339.239875)scale(0.12 -0.12)">
       <defs>
        <path d="M 2034 2216 
Q 1584 2216 1326 1975 
Q 1069 1734 1069 1313 
Q 1069 891 1326 650 
Q 1584 409 2034 409 
Q 2484 409 2743 651 
Q 3003 894 3003 1313 
Q 3003 1734 2745 1975 
Q 2488 2216 2034 2216 
z
M 1403 2484 
Q 997 2584 770 2862 
Q 544 3141 544 3541 
Q 544 4100 942 4425 
Q 1341 4750 2034 4750 
Q 2731 4750 3128 4425 
Q 3525 4100 3525 3541 
Q 3525 3141 3298 2862 
Q 3072 2584 2669 2484 
Q 3125 2378 3379 2068 
Q 3634 1759 3634 1313 
Q 3634 634 3220 271 
Q 2806 -91 2034 -91 
Q 1263 -91 848 271 
Q 434 634 434 1313 
Q 434 1759 690 2068 
Q 947 2378 1403 2484 
z
M 1172 3481 
Q 1172 3119 1398 2916 
Q 1625 2713 2034 2713 
Q 2441 2713 2670 2916 
Q 2900 3119 2900 3481 
Q 2900 3844 2670 4047 
Q 2441 4250 2034 4250 
Q 1625 4250 1398 4047 
Q 1172 3844 1172 3481 
z
" id="DejaVuSans-38" transform="scale(0.015625)"/>
       </defs>
       <use xlink:href="#DejaVuSans-38"/>
       <use x="63.623047" xlink:href="#DejaVuSans-30"/>
      </g>
     </g>
    </g>
    <g id="xtick_6">
     <g id="line2d_6">
      <g>
       <use style="stroke:#000000;stroke-width:0.8;" x="443.31875" xlink:href="#me68368c690" y="323.12175"/>
      </g>
     </g>
     <g id="text_6">
      <!-- 100 -->
      <g transform="translate(431.86625 339.239875)scale(0.12 -0.12)">
       <defs>
        <path d="M 794 531 
L 1825 531 
L 1825 4091 
L 703 3866 
L 703 4441 
L 1819 4666 
L 2450 4666 
L 2450 531 
L 3481 531 
L 3481 0 
L 794 0 
L 794 531 
z
" id="DejaVuSans-31" transform="scale(0.015625)"/>
       </defs>
       <use xlink:href="#DejaVuSans-31"/>
       <use x="63.623047" xlink:href="#DejaVuSans-30"/>
       <use x="127.246094" xlink:href="#DejaVuSans-30"/>
      </g>
     </g>
    </g>
    <g id="text_7">
     <!-- PPO Update -->
     <g transform="translate(212.422813 354.853625)scale(0.12 -0.12)">
      <defs>
       <path d="M 1259 4147 
L 1259 2394 
L 2053 2394 
Q 2494 2394 2734 2622 
Q 2975 2850 2975 3272 
Q 2975 3691 2734 3919 
Q 2494 4147 2053 4147 
L 1259 4147 
z
M 628 4666 
L 2053 4666 
Q 2838 4666 3239 4311 
Q 3641 3956 3641 3272 
Q 3641 2581 3239 2228 
Q 2838 1875 2053 1875 
L 1259 1875 
L 1259 0 
L 628 0 
L 628 4666 
z
" id="DejaVuSans-50" transform="scale(0.015625)"/>
       <path d="M 2522 4238 
Q 1834 4238 1429 3725 
Q 1025 3213 1025 2328 
Q 1025 1447 1429 934 
Q 1834 422 2522 422 
Q 3209 422 3611 934 
Q 4013 1447 4013 2328 
Q 4013 3213 3611 3725 
Q 3209 4238 2522 4238 
z
M 2522 4750 
Q 3503 4750 4090 4092 
Q 4678 3434 4678 2328 
Q 4678 1225 4090 567 
Q 3503 -91 2522 -91 
Q 1538 -91 948 565 
Q 359 1222 359 2328 
Q 359 3434 948 4092 
Q 1538 4750 2522 4750 
z
" id="DejaVuSans-4f" transform="scale(0.015625)"/>
       <path id="DejaVuSans-20" transform="scale(0.015625)"/>
       <path d="M 556 4666 
L 1191 4666 
L 1191 1831 
Q 1191 1081 1462 751 
Q 1734 422 2344 422 
Q 2950 422 3222 751 
Q 3494 1081 3494 1831 
L 3494 4666 
L 4128 4666 
L 4128 1753 
Q 4128 841 3676 375 
Q 3225 -91 2344 -91 
Q 1459 -91 1007 375 
Q 556 841 556 1753 
L 556 4666 
z
" id="DejaVuSans-55" transform="scale(0.015625)"/>
       <path d="M 1159 525 
L 1159 -1331 
L 581 -1331 
L 581 3500 
L 1159 3500 
L 1159 2969 
Q 1341 3281 1617 3432 
Q 1894 3584 2278 3584 
Q 2916 3584 3314 3078 
Q 3713 2572 3713 1747 
Q 3713 922 3314 415 
Q 2916 -91 2278 -91 
Q 1894 -91 1617 61 
Q 1341 213 1159 525 
z
M 3116 1747 
Q 3116 2381 2855 2742 
Q 2594 3103 2138 3103 
Q 1681 3103 1420 2742 
Q 1159 2381 1159 1747 
Q 1159 1113 1420 752 
Q 1681 391 2138 391 
Q 2594 391 2855 752 
Q 3116 1113 3116 1747 
z
" id="DejaVuSans-70" transform="scale(0.015625)"/>
       <path d="M 2906 2969 
L 2906 4863 
L 3481 4863 
L 3481 0 
L 2906 0 
L 2906 525 
Q 2725 213 2448 61 
Q 2172 -91 1784 -91 
Q 1150 -91 751 415 
Q 353 922 353 1747 
Q 353 2572 751 3078 
Q 1150 3584 1784 3584 
Q 2172 3584 2448 3432 
Q 2725 3281 2906 2969 
z
M 947 1747 
Q 947 1113 1208 752 
Q 1469 391 1925 391 
Q 2381 391 2643 752 
Q 2906 1113 2906 1747 
Q 2906 2381 2643 2742 
Q 2381 3103 1925 3103 
Q 1469 3103 1208 2742 
Q 947 2381 947 1747 
z
" id="DejaVuSans-64" transform="scale(0.015625)"/>
       <path d="M 2194 1759 
Q 1497 1759 1228 1600 
Q 959 1441 959 1056 
Q 959 750 1161 570 
Q 1363 391 1709 391 
Q 2188 391 2477 730 
Q 2766 1069 2766 1631 
L 2766 1759 
L 2194 1759 
z
M 3341 1997 
L 3341 0 
L 2766 0 
L 2766 531 
Q 2569 213 2275 61 
Q 1981 -91 1556 -91 
Q 1019 -91 701 211 
Q 384 513 384 1019 
Q 384 1609 779 1909 
Q 1175 2209 1959 2209 
L 2766 2209 
L 2766 2266 
Q 2766 2663 2505 2880 
Q 2244 3097 1772 3097 
Q 1472 3097 1187 3025 
Q 903 2953 641 2809 
L 641 3341 
Q 956 3463 1253 3523 
Q 1550 3584 1831 3584 
Q 2591 3584 2966 3190 
Q 3341 2797 3341 1997 
z
" id="DejaVuSans-61" transform="scale(0.015625)"/>
       <path d="M 1172 4494 
L 1172 3500 
L 2356 3500 
L 2356 3053 
L 1172 3053 
L 1172 1153 
Q 1172 725 1289 603 
Q 1406 481 1766 481 
L 2356 481 
L 2356 0 
L 1766 0 
Q 1100 0 847 248 
Q 594 497 594 1153 
L 594 3053 
L 172 3053 
L 172 3500 
L 594 3500 
L 594 4494 
L 1172 4494 
z
" id="DejaVuSans-74" transform="scale(0.015625)"/>
       <path d="M 3597 1894 
L 3597 1613 
L 953 1613 
Q 991 1019 1311 708 
Q 1631 397 2203 397 
Q 2534 397 2845 478 
Q 3156 559 3463 722 
L 3463 178 
Q 3153 47 2828 -22 
Q 2503 -91 2169 -91 
Q 1331 -91 842 396 
Q 353 884 353 1716 
Q 353 2575 817 3079 
Q 1281 3584 2069 3584 
Q 2775 3584 3186 3129 
Q 3597 2675 3597 1894 
z
M 3022 2063 
Q 3016 2534 2758 2815 
Q 2500 3097 2075 3097 
Q 1594 3097 1305 2825 
Q 1016 2553 972 2059 
L 3022 2063 
z
" id="DejaVuSans-65" transform="scale(0.015625)"/>
      </defs>
      <use xlink:href="#DejaVuSans-50"/>
      <use x="60.302734" xlink:href="#DejaVuSans-50"/>
      <use x="120.605469" xlink:href="#DejaVuSans-4f"/>
      <use x="199.316406" xlink:href="#DejaVuSans-20"/>
      <use x="231.103516" xlink:href="#DejaVuSans-55"/>
      <use x="304.296875" xlink:href="#DejaVuSans-70"/>
      <use x="367.773438" xlink:href="#DejaVuSans-64"/>
      <use x="431.25" xlink:href="#DejaVuSans-61"/>
      <use x="492.529297" xlink:href="#DejaVuSans-74"/>
      <use x="531.738281" xlink:href="#DejaVuSans-65"/>
     </g>
    </g>
   </g>
   <g id="matplotlib.axis_2">
    <g id="ytick_1">
     <g id="line2d_7">
      <defs>
       <path d="M 0 0 
L -3.5 0 
" id="m2da73f5de4" style="stroke:#000000;stroke-width:0.8;"/>
      </defs>
      <g>
       <use style="stroke:#000000;stroke-width:0.8;" x="52.71875" xlink:href="#m2da73f5de4" y="323.12175"/>
      </g>
     </g>
     <g id="text_8">
      <!-- 0 -->
      <g transform="translate(38.08375 327.680813)scale(0.12 -0.12)">
       <use xlink:href="#DejaVuSans-30"/>
      </g>
     </g>
    </g>
    <g id="ytick_2">
     <g id="line2d_8">
      <g>
       <use style="stroke:#000000;stroke-width:0.8;" x="52.71875" xlink:href="#m2da73f5de4" y="285.74925"/>
      </g>
     </g>
     <g id="text_9">
      <!-- 25 -->
      <g transform="translate(30.44875 290.308312)scale(0.12 -0.12)">
       <defs>
        <path d="M 691 4666 
L 3169 4666 
L 3169 4134 
L 1269 4134 
L 1269 2991 
Q 1406 3038 1543 3061 
Q 1681 3084 1819 3084 
Q 2600 3084 3056 2656 
Q 3513 2228 3513 1497 
Q 3513 744 3044 326 
Q 2575 -91 1722 -91 
Q 1428 -91 1123 -41 
Q 819 9 494 109 
L 494 744 
Q 775 591 1075 516 
Q 1375 441 1709 441 
Q 2250 441 2565 725 
Q 2881 1009 2881 1497 
Q 2881 1984 2565 2268 
Q 2250 2553 1709 2553 
Q 1456 2553 1204 2497 
Q 953 2441 691 2322 
L 691 4666 
z
" id="DejaVuSans-35" transform="scale(0.015625)"/>
       </defs>
       <use xlink:href="#DejaVuSans-32"/>
       <use x="63.623047" xlink:href="#DejaVuSans-35"/>
      </g>
     </g>
    </g>
    <g id="ytick_3">
     <g id="line2d_9">
      <g>
       <use style="stroke:#000000;stroke-width:0.8;" x="52.71875" xlink:href="#m2da73f5de4" y="248.37675"/>
      </g>
     </g>
     <g id="text_10">
      <!-- 50 -->
      <g transform="translate(30.44875 252.935812)scale(0.12 -0.12)">
       <use xlink:href="#DejaVuSans-35"/>
       <use x="63.623047" xlink:href="#DejaVuSans-30"/>
      </g>
     </g>
    </g>
    <g id="ytick_4">
     <g id="line2d_10">
      <g>
       <use style="stroke:#000000;stroke-width:0.8;" x="52.71875" xlink:href="#m2da73f5de4" y="211.00425"/>
      </g>
     </g>
     <g id="text_11">
      <!-- 75 -->
      <g transform="translate(30.44875 215.563313)scale(0.12 -0.12)">
       <defs>
        <path d="M 525 4666 
L 3525 4666 
L 3525 4397 
L 1831 0 
L 1172 0 
L 2766 4134 
L 525 4134 
L 525 4666 
z
" id="DejaVuSans-37" transform="scale(0.015625)"/>
       </defs>
       <use xlink:href="#DejaVuSans-37"/>
       <use x="63.623047" xlink:href="#DejaVuSans-35"/>
      </g>
     </g>
    </g>
    <g id="ytick_5">
     <g id="line2d_11">
      <g>
       <use style="stroke:#000000;stroke-width:0.8;" x="52.71875" xlink:href="#m2da73f5de4" y="173.63175"/>
      </g>
     </g>
     <g id="text_12">
      <!-- 100 -->
      <g transform="translate(22.81375 178.190813)scale(0.12 -0.12)">
       <use xlink:href="#DejaVuSans-31"/>
       <use x="63.623047" xlink:href="#DejaVuSans-30"/>
       <use x="127.246094" xlink:href="#DejaVuSans-30"/>
      </g>
     </g>
    </g>
    <g id="ytick_6">
     <g id="line2d_12">
      <g>
       <use style="stroke:#000000;stroke-width:0.8;" x="52.71875" xlink:href="#m2da73f5de4" y="136.25925"/>
      </g>
     </g>
     <g id="text_13">
      <!-- 125 -->
      <g transform="translate(22.81375 140.818313)scale(0.12 -0.12)">
       <use xlink:href="#DejaVuSans-31"/>
       <use x="63.623047" xlink:href="#DejaVuSans-32"/>
       <use x="127.246094" xlink:href="#DejaVuSans-35"/>
      </g>
     </g>
    </g>
    <g id="ytick_7">
     <g id="line2d_13">
      <g>
       <use style="stroke:#000000;stroke-width:0.8;" x="52.71875" xlink:href="#m2da73f5de4" y="98.88675"/>
      </g>
     </g>
     <g id="text_14">
      <!-- 150 -->
      <g transform="translate(22.81375 103.445812)scale(0.12 -0.12)">
       <use xlink:href="#DejaVuSans-31"/>
       <use x="63.623047" xlink:href="#DejaVuSans-35"/>
       <use x="127.246094" xlink:href="#DejaVuSans-30"/>
      </g>
     </g>
    </g>
    <g id="ytick_8">
     <g id="line2d_14">
      <g>
       <use style="stroke:#000000;stroke-width:0.8;" x="52.71875" xlink:href="#m2da73f5de4" y="61.51425"/>
      </g>
     </g>
     <g id="text_15">
      <!-- 175 -->
      <g transform="translate(22.81375 66.073312)scale(0.12 -0.12)">
       <use xlink:href="#DejaVuSans-31"/>
       <use x="63.623047" xlink:href="#DejaVuSans-37"/>
       <use x="127.246094" xlink:href="#DejaVuSans-35"/>
      </g>
     </g>
    </g>
    <g id="ytick_9">
     <g id="line2d_15">
      <g>
       <use style="stroke:#000000;stroke-width:0.8;" x="52.71875" xlink:href="#m2da73f5de4" y="24.14175"/>
      </g>
     </g>
     <g id="text_16">
      <!-- 200 -->
      <g transform="translate(22.81375 28.700812)scale(0.12 -0.12)">
       <use xlink:href="#DejaVuSans-32"/>
       <use x="63.623047" xlink:href="#DejaVuSans-30"/>
       <use x="127.246094" xlink:href="#DejaVuSans-30"/>
      </g>
     </g>
    </g>
    <g id="text_17">
     <!-- Mean Reward -->
     <g transform="translate(16.318125 214.232063)rotate(-90)scale(0.12 -0.12)">
      <defs>
       <path d="M 628 4666 
L 1569 4666 
L 2759 1491 
L 3956 4666 
L 4897 4666 
L 4897 0 
L 4281 0 
L 4281 4097 
L 3078 897 
L 2444 897 
L 1241 4097 
L 1241 0 
L 628 0 
L 628 4666 
z
" id="DejaVuSans-4d" transform="scale(0.015625)"/>
       <path d="M 3513 2113 
L 3513 0 
L 2938 0 
L 2938 2094 
Q 2938 2591 2744 2837 
Q 2550 3084 2163 3084 
Q 1697 3084 1428 2787 
Q 1159 2491 1159 1978 
L 1159 0 
L 581 0 
L 581 3500 
L 1159 3500 
L 1159 2956 
Q 1366 3272 1645 3428 
Q 1925 3584 2291 3584 
Q 2894 3584 3203 3211 
Q 3513 2838 3513 2113 
z
" id="DejaVuSans-6e" transform="scale(0.015625)"/>
       <path d="M 2841 2188 
Q 3044 2119 3236 1894 
Q 3428 1669 3622 1275 
L 4263 0 
L 3584 0 
L 2988 1197 
Q 2756 1666 2539 1819 
Q 2322 1972 1947 1972 
L 1259 1972 
L 1259 0 
L 628 0 
L 628 4666 
L 2053 4666 
Q 2853 4666 3247 4331 
Q 3641 3997 3641 3322 
Q 3641 2881 3436 2590 
Q 3231 2300 2841 2188 
z
M 1259 4147 
L 1259 2491 
L 2053 2491 
Q 2509 2491 2742 2702 
Q 2975 2913 2975 3322 
Q 2975 3731 2742 3939 
Q 2509 4147 2053 4147 
L 1259 4147 
z
" id="DejaVuSans-52" transform="scale(0.015625)"/>
       <path d="M 269 3500 
L 844 3500 
L 1563 769 
L 2278 3500 
L 2956 3500 
L 3675 769 
L 4391 3500 
L 4966 3500 
L 4050 0 
L 3372 0 
L 2619 2869 
L 1863 0 
L 1184 0 
L 269 3500 
z
" id="DejaVuSans-77" transform="scale(0.015625)"/>
       <path d="M 2631 2963 
Q 2534 3019 2420 3045 
Q 2306 3072 2169 3072 
Q 1681 3072 1420 2755 
Q 1159 2438 1159 1844 
L 1159 0 
L 581 0 
L 581 3500 
L 1159 3500 
L 1159 2956 
Q 1341 3275 1631 3429 
Q 1922 3584 2338 3584 
Q 2397 3584 2469 3576 
Q 2541 3569 2628 3553 
L 2631 2963 
z
" id="DejaVuSans-72" transform="scale(0.015625)"/>
      </defs>
      <use xlink:href="#DejaVuSans-4d"/>
      <use x="86.279297" xlink:href="#DejaVuSans-65"/>
      <use x="147.802734" xlink:href="#DejaVuSans-61"/>
      <use x="209.082031" xlink:href="#DejaVuSans-6e"/>
      <use x="272.460938" xlink:href="#DejaVuSans-20"/>
      <use x="304.248047" xlink:href="#DejaVuSans-52"/>
      <use x="369.230469" xlink:href="#DejaVuSans-65"/>
      <use x="430.753906" xlink:href="#DejaVuSans-77"/>
      <use x="512.541016" xlink:href="#DejaVuSans-61"/>
      <use x="573.820312" xlink:href="#DejaVuSans-72"/>
      <use x="613.183594" xlink:href="#DejaVuSans-64"/>
     </g>
    </g>
   </g>
   <g id="line2d_16">
    <path clip-path="url(#p76eb157db8)" d="M 52.71875 290.952995 
L 56.62475 289.712231 
L 60.53075 290.302715 
L 64.43675 288.951326 
L 68.34275 289.2219 
L 72.24875 287.776333 
L 76.15475 286.79119 
L 80.06075 287.22023 
L 83.96675 284.714783 
L 87.87275 284.678902 
L 91.77875 281.872977 
L 95.68475 280.052185 
L 99.59075 278.784507 
L 103.49675 276.237206 
L 107.40275 271.217326 
L 111.30875 266.228842 
L 115.21475 258.2401 
L 119.12075 251.671507 
L 123.02675 241.322314 
L 126.93275 227.880178 
L 130.83875 212.231562 
L 134.74475 196.524653 
L 138.65075 181.586112 
L 142.55675 165.607121 
L 146.46275 150.26795 
L 150.36875 136.320541 
L 154.27475 124.143069 
L 158.18075 115.858345 
L 162.08675 107.908477 
L 165.99275 100.396591 
L 169.89875 94.680108 
L 173.80475 87.225043 
L 177.71075 82.534046 
L 181.61675 75.905651 
L 185.52275 72.444931 
L 189.42875 70.837941 
L 193.33475 68.664364 
L 197.24075 66.83162 
L 201.14675 64.577294 
L 205.05275 63.290219 
L 208.95875 61.787815 
L 212.86475 59.778701 
L 216.77075 55.578013 
L 220.67675 55.796262 
L 224.58275 54.681063 
L 228.48875 51.335467 
L 232.39475 51.719662 
L 236.30075 49.305413 
L 240.20675 47.619157 
L 244.11275 47.786585 
L 248.01875 47.655015 
L 251.92475 47.746234 
L 255.83075 47.015207 
L 259.73675 46.261804 
L 263.64275 46.143669 
L 267.54875 43.871437 
L 271.45475 43.796711 
L 275.36075 43.035802 
L 279.26675 42.218096 
L 283.17275 41.648522 
L 287.07875 41.232963 
L 290.98475 41.333077 
L 294.89075 40.313568 
L 298.79675 40.010122 
L 302.70275 40.506407 
L 306.60875 40.383847 
L 310.51475 40.778489 
L 314.42075 40.772513 
L 318.32675 40.966857 
L 322.23275 40.990808 
L 326.13875 42.002789 
L 330.04475 40.238818 
L 333.95075 39.477933 
L 337.85675 39.374785 
L 341.76275 39.298552 
L 345.66875 39.380761 
L 349.57475 40.630495 
L 353.48075 40.968339 
L 357.38675 38.554068 
L 361.29275 37.101025 
L 365.19875 37.88139 
L 369.10475 37.099542 
L 373.01075 36.830471 
L 376.91675 36.516532 
L 380.82275 35.008151 
L 384.72875 33.42956 
L 388.63475 33.891493 
L 392.54075 33.571554 
L 396.44675 32.933275 
L 400.35275 34.917001 
L 404.25875 35.057536 
L 408.16475 34.01257 
L 412.07075 35.564268 
L 415.97675 36.594247 
L 419.88275 34.606073 
L 423.78875 34.970788 
L 427.69475 34.407235 
L 431.60075 35.042572 
L 435.50675 34.890085 
L 439.41275 34.936412 
" style="fill:none;stroke:#1f77b4;stroke-linecap:square;stroke-width:1.5;"/>
   </g>
   <g id="patch_3">
    <path d="M 52.71875 323.12175 
L 52.71875 24.14175 
" style="fill:none;stroke:#000000;stroke-linecap:square;stroke-linejoin:miter;stroke-width:0.8;"/>
   </g>
   <g id="patch_4">
    <path d="M 443.31875 323.12175 
L 443.31875 24.14175 
" style="fill:none;stroke:#000000;stroke-linecap:square;stroke-linejoin:miter;stroke-width:0.8;"/>
   </g>
   <g id="patch_5">
    <path d="M 52.71875 323.12175 
L 443.31875 323.12175 
" style="fill:none;stroke:#000000;stroke-linecap:square;stroke-linejoin:miter;stroke-width:0.8;"/>
   </g>
   <g id="patch_6">
    <path d="M 52.71875 24.14175 
L 443.31875 24.14175 
" style="fill:none;stroke:#000000;stroke-linecap:square;stroke-linejoin:miter;stroke-width:0.8;"/>
   </g>
   <g id="text_18">
    <!-- Training Performance across 10 Runs -->
    <g transform="translate(115.044875 18.14175)scale(0.144 -0.144)">
     <defs>
      <path d="M -19 4666 
L 3928 4666 
L 3928 4134 
L 2272 4134 
L 2272 0 
L 1638 0 
L 1638 4134 
L -19 4134 
L -19 4666 
z
" id="DejaVuSans-54" transform="scale(0.015625)"/>
      <path d="M 603 3500 
L 1178 3500 
L 1178 0 
L 603 0 
L 603 3500 
z
M 603 4863 
L 1178 4863 
L 1178 4134 
L 603 4134 
L 603 4863 
z
" id="DejaVuSans-69" transform="scale(0.015625)"/>
      <path d="M 2906 1791 
Q 2906 2416 2648 2759 
Q 2391 3103 1925 3103 
Q 1463 3103 1205 2759 
Q 947 2416 947 1791 
Q 947 1169 1205 825 
Q 1463 481 1925 481 
Q 2391 481 2648 825 
Q 2906 1169 2906 1791 
z
M 3481 434 
Q 3481 -459 3084 -895 
Q 2688 -1331 1869 -1331 
Q 1566 -1331 1297 -1286 
Q 1028 -1241 775 -1147 
L 775 -588 
Q 1028 -725 1275 -790 
Q 1522 -856 1778 -856 
Q 2344 -856 2625 -561 
Q 2906 -266 2906 331 
L 2906 616 
Q 2728 306 2450 153 
Q 2172 0 1784 0 
Q 1141 0 747 490 
Q 353 981 353 1791 
Q 353 2603 747 3093 
Q 1141 3584 1784 3584 
Q 2172 3584 2450 3431 
Q 2728 3278 2906 2969 
L 2906 3500 
L 3481 3500 
L 3481 434 
z
" id="DejaVuSans-67" transform="scale(0.015625)"/>
      <path d="M 2375 4863 
L 2375 4384 
L 1825 4384 
Q 1516 4384 1395 4259 
Q 1275 4134 1275 3809 
L 1275 3500 
L 2222 3500 
L 2222 3053 
L 1275 3053 
L 1275 0 
L 697 0 
L 697 3053 
L 147 3053 
L 147 3500 
L 697 3500 
L 697 3744 
Q 697 4328 969 4595 
Q 1241 4863 1831 4863 
L 2375 4863 
z
" id="DejaVuSans-66" transform="scale(0.015625)"/>
      <path d="M 1959 3097 
Q 1497 3097 1228 2736 
Q 959 2375 959 1747 
Q 959 1119 1226 758 
Q 1494 397 1959 397 
Q 2419 397 2687 759 
Q 2956 1122 2956 1747 
Q 2956 2369 2687 2733 
Q 2419 3097 1959 3097 
z
M 1959 3584 
Q 2709 3584 3137 3096 
Q 3566 2609 3566 1747 
Q 3566 888 3137 398 
Q 2709 -91 1959 -91 
Q 1206 -91 779 398 
Q 353 888 353 1747 
Q 353 2609 779 3096 
Q 1206 3584 1959 3584 
z
" id="DejaVuSans-6f" transform="scale(0.015625)"/>
      <path d="M 3328 2828 
Q 3544 3216 3844 3400 
Q 4144 3584 4550 3584 
Q 5097 3584 5394 3201 
Q 5691 2819 5691 2113 
L 5691 0 
L 5113 0 
L 5113 2094 
Q 5113 2597 4934 2840 
Q 4756 3084 4391 3084 
Q 3944 3084 3684 2787 
Q 3425 2491 3425 1978 
L 3425 0 
L 2847 0 
L 2847 2094 
Q 2847 2600 2669 2842 
Q 2491 3084 2119 3084 
Q 1678 3084 1418 2786 
Q 1159 2488 1159 1978 
L 1159 0 
L 581 0 
L 581 3500 
L 1159 3500 
L 1159 2956 
Q 1356 3278 1631 3431 
Q 1906 3584 2284 3584 
Q 2666 3584 2933 3390 
Q 3200 3197 3328 2828 
z
" id="DejaVuSans-6d" transform="scale(0.015625)"/>
      <path d="M 3122 3366 
L 3122 2828 
Q 2878 2963 2633 3030 
Q 2388 3097 2138 3097 
Q 1578 3097 1268 2742 
Q 959 2388 959 1747 
Q 959 1106 1268 751 
Q 1578 397 2138 397 
Q 2388 397 2633 464 
Q 2878 531 3122 666 
L 3122 134 
Q 2881 22 2623 -34 
Q 2366 -91 2075 -91 
Q 1284 -91 818 406 
Q 353 903 353 1747 
Q 353 2603 823 3093 
Q 1294 3584 2113 3584 
Q 2378 3584 2631 3529 
Q 2884 3475 3122 3366 
z
" id="DejaVuSans-63" transform="scale(0.015625)"/>
      <path d="M 2834 3397 
L 2834 2853 
Q 2591 2978 2328 3040 
Q 2066 3103 1784 3103 
Q 1356 3103 1142 2972 
Q 928 2841 928 2578 
Q 928 2378 1081 2264 
Q 1234 2150 1697 2047 
L 1894 2003 
Q 2506 1872 2764 1633 
Q 3022 1394 3022 966 
Q 3022 478 2636 193 
Q 2250 -91 1575 -91 
Q 1294 -91 989 -36 
Q 684 19 347 128 
L 347 722 
Q 666 556 975 473 
Q 1284 391 1588 391 
Q 1994 391 2212 530 
Q 2431 669 2431 922 
Q 2431 1156 2273 1281 
Q 2116 1406 1581 1522 
L 1381 1569 
Q 847 1681 609 1914 
Q 372 2147 372 2553 
Q 372 3047 722 3315 
Q 1072 3584 1716 3584 
Q 2034 3584 2315 3537 
Q 2597 3491 2834 3397 
z
" id="DejaVuSans-73" transform="scale(0.015625)"/>
      <path d="M 544 1381 
L 544 3500 
L 1119 3500 
L 1119 1403 
Q 1119 906 1312 657 
Q 1506 409 1894 409 
Q 2359 409 2629 706 
Q 2900 1003 2900 1516 
L 2900 3500 
L 3475 3500 
L 3475 0 
L 2900 0 
L 2900 538 
Q 2691 219 2414 64 
Q 2138 -91 1772 -91 
Q 1169 -91 856 284 
Q 544 659 544 1381 
z
M 1991 3584 
L 1991 3584 
z
" id="DejaVuSans-75" transform="scale(0.015625)"/>
     </defs>
     <use xlink:href="#DejaVuSans-54"/>
     <use x="46.333984" xlink:href="#DejaVuSans-72"/>
     <use x="87.447266" xlink:href="#DejaVuSans-61"/>
     <use x="148.726562" xlink:href="#DejaVuSans-69"/>
     <use x="176.509766" xlink:href="#DejaVuSans-6e"/>
     <use x="239.888672" xlink:href="#DejaVuSans-69"/>
     <use x="267.671875" xlink:href="#DejaVuSans-6e"/>
     <use x="331.050781" xlink:href="#DejaVuSans-67"/>
     <use x="394.527344" xlink:href="#DejaVuSans-20"/>
     <use x="426.314453" xlink:href="#DejaVuSans-50"/>
     <use x="482.992188" xlink:href="#DejaVuSans-65"/>
     <use x="544.515625" xlink:href="#DejaVuSans-72"/>
     <use x="585.628906" xlink:href="#DejaVuSans-66"/>
     <use x="620.833984" xlink:href="#DejaVuSans-6f"/>
     <use x="682.015625" xlink:href="#DejaVuSans-72"/>
     <use x="721.378906" xlink:href="#DejaVuSans-6d"/>
     <use x="818.791016" xlink:href="#DejaVuSans-61"/>
     <use x="880.070312" xlink:href="#DejaVuSans-6e"/>
     <use x="943.449219" xlink:href="#DejaVuSans-63"/>
     <use x="998.429688" xlink:href="#DejaVuSans-65"/>
     <use x="1059.953125" xlink:href="#DejaVuSans-20"/>
     <use x="1091.740234" xlink:href="#DejaVuSans-61"/>
     <use x="1153.019531" xlink:href="#DejaVuSans-63"/>
     <use x="1208" xlink:href="#DejaVuSans-72"/>
     <use x="1246.863281" xlink:href="#DejaVuSans-6f"/>
     <use x="1308.044922" xlink:href="#DejaVuSans-73"/>
     <use x="1360.144531" xlink:href="#DejaVuSans-73"/>
     <use x="1412.244141" xlink:href="#DejaVuSans-20"/>
     <use x="1444.03125" xlink:href="#DejaVuSans-31"/>
     <use x="1507.654297" xlink:href="#DejaVuSans-30"/>
     <use x="1571.277344" xlink:href="#DejaVuSans-20"/>
     <use x="1603.064453" xlink:href="#DejaVuSans-52"/>
     <use x="1668.046875" xlink:href="#DejaVuSans-75"/>
     <use x="1731.425781" xlink:href="#DejaVuSans-6e"/>
     <use x="1794.804688" xlink:href="#DejaVuSans-73"/>
    </g>
   </g>
  </g>
 </g>
 <defs>
  <clipPath id="p76eb157db8">
   <rect height="298.98" width="390.6" x="52.71875" y="24.14175"/>
  </clipPath>
 </defs>
</svg>
